#!OML:ASF F:\VICON\USERDATA\INSTALL\rory3\rory3.ASF
:FULLY-SPECIFIED
:DEGREES
64
root 0.22477085080099288 17.418678477887376 33.727554544523166 3.007597062132531 3.0535092707640596 0.48906094876805506
lfemur -19.950377627181226 -4.039156222068956 -26.084883005209768
ltibia 42.56611623076755
lfoot -10.567201385596887 -7.83496164840301
ltoes 5.8504259505361365
rfemur -12.048036605642011 5.437732508414399 24.02647924416583
rtibia 37.59242548754304
rfoot 9.240218074167382 1.3083874428707132
rtoes 11.471448966050612
lowerback 15.062490269502359 2.9029175136288594 -0.7222732696850576
upperback -0.18873411029854537 3.8171938657712534 0.16878150189497254
thorax -9.548935968895705 1.8446566265950528 -0.34693231904965505
lowerneck -19.72381763731342 -4.403241635941479 -2.1676711305879603
upperneck 15.77759029117323 -5.810722210243183 2.3329890366547565
head 8.338470160917113 -2.662073812938155 0.35516142698071684
lclavicle -1.727271414889011e-15 1.784762123326955e-15
lhumerus -52.16198093403565 -14.491090867521159 98.77955051109303
lradius 111.42152432534878
lwrist 33.25345218718022
lhand -24.781856935726882 3.498648566705034
lfingers 7.12502
lthumb 1.3398653338005906 33.33234726249555
rclavicle -1.7225567277968948e-15 1.789403650213995e-15
rhumerus -53.4862681165115 8.505743807079174 -99.31352869916758
rradius 115.12894999771413
rwrist -7.767992379156498
rhand -17.02155083474978 39.18331036529705
rfingers 7.12502
rthumb 9.23020463411462 9.578153207908533
65
root 0.22513544208000422 17.334185583856062 34.75493269906313 3.3668936538921037 2.483308039991832 0.24801843969682524
lfemur -18.375540654116406 -4.288881181924745 -26.077580246265086
ltibia 46.51185610166724
lfoot -13.733480057618728 -4.542970558617415
ltoes 4.5228149796316615
rfemur -14.874457097105958 5.3482622809209825 23.770371377337334
rtibia 40.709010791500845
rfoot 5.201498799355714 1.3438159236602614
rtoes 12.056922307358345
lowerback 15.208238857661163 2.7558578476714413 -0.5929951874972181
upperback -0.09136558404220274 3.6256341136849386 0.07051500977968339
thorax -9.789391035279516 1.7650587383260716 0.12319207238678254
lowerneck -20.03238254242874 -4.323439164521939 -2.0155521116752495
upperneck 15.597734086973496 -5.740728162598107 2.3603603509935867
head 8.311367250843983 -2.6175271191585128 0.35678850150023284
lclavicle -1.727624147916345e-15 1.7845062884272754e-15
lhumerus -48.63619127096792 -15.107870507183245 98.58497620065839
lradius 111.54791617357368
lwrist 33.40816612540375
lhand -24.621138502273347 3.9938062598796282
lfingers 7.12502
lthumb 1.4724932929627634 33.67072962793813
rclavicle -1.723248345647613e-15 1.7887707457532596e-15
rhumerus -54.00087322058802 7.986452193781016 -98.99160212738553
rradius 114.229728131459
rwrist -7.999158928321167
rhand -16.799578562990046 39.225412078189144
rfingers 7.12502
rthumb 9.319903889286447 9.685990079724007
66
root 0.23360025862630043 17.32247809152778 35.73838790804278 3.5915648764407413 1.807377134350661 0.19338756897130516
lfemur -16.561963224169627 -4.236391950702867 -26.167614445000336
ltibia 48.80702199292818
lfoot -16.242442476879127 -2.0250683630838155
ltoes 1.823748189106654
rfemur -17.595492237508523 5.336265317555718 23.57385401733299
rtibia 44.188450039506876
rfoot 1.2202133371471744 1.4818424733478333
rtoes 12.334209526363317
lowerback 15.392455603599997 2.6121659794451006 -0.706348924068932
upperback -0.13648241399854166 3.373374111617142 0.1486626206077839
thorax -9.921964212841724 1.664133022707869 0.54479002713627
lowerneck -20.416546559951243 -4.227489565828459 -1.9083325541420066
upperneck 15.397411938037434 -5.6547104913866075 2.439592628799402
head 8.281547833395734 -2.562285236566998 0.3919361527437999
lclavicle -1.7280798973837748e-15 1.7841757948351408e-15
lhumerus -45.49735790192636 -15.521156008711088 98.24775602958928
lradius 112.08775794124399
lwrist 33.18786533510069
lhand -24.32680368202454 4.025534978202996
lfingers 7.12502
lthumb 1.7342572178238902 33.582518972747046
rclavicle -1.7240289189031592e-15 1.7880816402327512e-15
rhumerus -54.4263890706716 7.620672699502402 -98.60044097929948
rradius 113.41403861618979
rwrist -8.328001810504578
rhand -16.55946144947963 39.272113569209836
rfingers 7.12502
rthumb 9.424624205896121 9.807358267971377
67
root 0.23425108992203594 17.352205268160088 36.813201124162276 3.9485312321855375 0.6106521624278354 0.7328078586021274
lfemur -14.140077857290414 -3.697644466319939 -26.969561356305306
ltibia 49.49387640935085
lfoot -17.919565905464854 -0.5622984757158207
ltoes -0.38457139842322086
rfemur -20.453069884313734 5.715584069119231 22.925709269803733
rtibia 47.82135947777019
rfoot -2.289440145157452 1.8795278490420086
rtoes 11.321675867692665
lowerback 15.19386072945451 2.592198458857741 -1.5285624177397337
upperback -0.19833215228161039 3.173335115540416 0.14541270330182487
thorax -10.006337317179279 1.574784918504939 0.8986496097765829
lowerneck -20.80505906277235 -4.117838971810934 -1.827669149716596
upperneck 15.19074053081504 -5.546798021550456 2.5365336820335913
head 8.249466809985844 -2.4951246775466314 0.4428809831121372
lclavicle -1.7285214281677994e-15 1.7838555680435348e-15
lhumerus -43.24784117544183 -15.853894226975534 97.78027434204846
lradius 113.23198865275995
lwrist 32.9500487445092
lhand -24.06893151429912 3.556371232419408
lfingers 7.12502
lthumb 1.9804768036568354 33.123548880973495
rclavicle -1.7255021497912425e-15 1.7869284904559434e-15
rhumerus -54.747545504903876 7.421733004274753 -98.15589943684445
rradius 112.70058713749117
rwrist -8.727136764903038
rhand -16.307722399748954 39.323896441586726
rfingers 7.12502
rthumb 9.564457718547857 9.94643880931144
